<?xml version="1.0" encoding="UTF-8" standalone="no"?>
<!DOCTYPE svg PUBLIC "-//W3C//DTD SVG 1.1//EN" "http://www.w3.org/Graphics/SVG/1.1/DTD/svg11.dtd">
<svg width="100%" height="100%" viewBox="0 0 1080 1080" version="1.1" xmlns="http://www.w3.org/2000/svg"
     xml:space="preserve"
     style="fill-rule:evenodd;clip-rule:evenodd;stroke-linejoin:round;stroke-miterlimit:2;">
    <g transform="matrix(0.996164,0,0,0.994301,6.64437,0.992259)">
        <path d="M1077.49,270.55C1077.49,120.678 956.04,-0.998 806.449,-0.998L264.37,-0.998C114.779,-0.998 -6.67,120.678 -6.67,270.55L-6.67,813.644C-6.67,963.516 114.779,1085.19 264.37,1085.19L806.449,1085.19C956.04,1085.19 1077.49,963.516 1077.49,813.644L1077.49,270.55Z" style="fill:rgb(189,99,47);"/>
    </g>
    <g transform="matrix(1,0,0,1,-144.797,129.122)">
        <path d="M403.797,766.878C275.131,766.878 210.797,700.878 210.797,568.878C210.797,450.212 238.131,338.212 292.797,232.878C319.464,180.878 355.964,138.212 402.297,104.878C448.631,71.545 501.131,54.878 559.797,54.878C603.797,54.878 651.131,60.878 701.797,72.878L725.797,77.878L708.797,137.878C657.464,127.878 608.797,122.878 562.797,122.878C516.797,122.878 476.464,136.712 441.797,164.378C407.131,192.045 379.131,227.545 357.797,270.878C313.131,362.878 290.797,460.878 290.797,564.878C290.797,610.212 300.631,643.878 320.297,665.878C339.964,687.878 371.131,698.878 413.797,698.878C464.464,698.878 511.131,694.878 553.797,686.878L576.797,681.878L571.797,744.878C512.464,759.545 456.464,766.878 403.797,766.878Z" style="fill:white;fill-rule:nonzero;"/>
        <path d="M1109.42,193.905C1103.42,188.023 1109.6,133.013 1109.6,133.013C1109.6,133.013 1009.37,121.878 967.797,121.878C919.131,121.878 880.631,134.378 852.297,159.378C823.964,184.378 809.797,220.545 809.797,267.878C809.797,294.545 817.964,313.878 834.297,325.878C850.631,337.878 884.631,353.045 936.297,371.378C987.964,389.712 1023.96,409.545 1044.3,430.878C1064.63,452.212 1074.8,484.545 1074.8,527.878C1074.8,602.545 1052.46,661.045 1007.8,703.378C963.131,745.712 902.797,766.878 826.797,766.878C770.131,766.878 745.743,761.99 687.743,748.657C687.743,748.657 670.626,810.292 663.063,810.717C656.57,811.082 606.908,713.712 609.517,701.286C611.624,691.248 698.908,619.476 703.215,623.95C708.13,629.054 699.201,689.478 699.201,689.478C699.201,689.478 792.777,698.878 831.797,698.878C883.131,698.878 923.297,684.712 952.297,656.378C981.297,628.045 995.797,587.545 995.797,534.878C995.797,507.545 988.464,487.378 973.797,474.378C959.131,461.378 926.797,446.212 876.797,428.878C826.797,411.545 790.131,392.212 766.797,370.878C743.464,349.545 731.797,317.212 731.797,273.878C731.797,205.878 753.631,152.378 797.297,113.378C840.964,74.378 899.797,54.878 973.797,54.878C1028.46,54.878 1117.8,73.878 1117.8,73.878C1117.8,73.878 1132.85,22.819 1140.97,21.739C1146.02,21.068 1190.09,111.531 1188.32,119.806C1186.36,128.957 1114.59,198.975 1109.42,193.905Z" style="fill:white;fill-rule:nonzero;"/>
    </g>
</svg>
