<?xml version="1.0" encoding="UTF-8" standalone="no"?>
<!DOCTYPE svg PUBLIC "-//W3C//DTD SVG 1.1//EN" "http://www.w3.org/Graphics/SVG/1.1/DTD/svg11.dtd">
<svg width="100%" height="100%" viewBox="0 0 512 100" version="1.1" xmlns="http://www.w3.org/2000/svg"
     xml:space="preserve"
     style="fill-rule:evenodd;clip-rule:evenodd;stroke-linejoin:round;stroke-miterlimit:2;">
    <g transform="matrix(1,0,0,1,-256,-418)">
        <g id="logo-group">
            <g id="logo-center">
                <g id="title">
                    <g id="path1495" transform="matrix(1.11,0,0,1.11,-79.1082,488.779)">
                        <path
                          d="M339.527,3.024C349.031,3.024 357.887,-1.728 363.215,-9.576L353.855,-15.912C350.615,-11.16 345.287,-8.28 339.527,-8.28C334.919,-8.28 330.527,-10.08 327.287,-13.32C323.975,-16.632 322.175,-20.952 322.175,-25.632C322.175,-30.24 323.975,-34.56 327.287,-37.872C330.527,-41.112 334.919,-42.912 339.527,-42.912C345.287,-42.912 350.687,-40.032 353.927,-35.208L363.287,-41.544C357.959,-49.464 349.103,-54.216 339.527,-54.216C335.639,-54.216 331.895,-53.496 328.367,-51.984C324.983,-50.544 321.887,-48.456 319.295,-45.864C316.631,-43.2 314.615,-40.176 313.175,-36.72C311.663,-33.192 310.871,-29.448 310.871,-25.632C310.871,-21.744 311.663,-18 313.175,-14.472C314.615,-11.088 316.631,-7.992 319.295,-5.4C321.887,-2.736 324.983,-0.648 328.367,0.792C331.895,2.232 335.639,3.024 339.527,3.024Z"
                          style="fill:white;fill-rule:nonzero;"/>
                    </g>
                  <g id="path1497" transform="matrix(1.11,0,0,1.11,-73.5582,488.779)">
                        <path
                          d="M391.843,-38.016L391.915,-35.712C389.035,-37.152 385.867,-37.944 382.627,-37.944C379.891,-37.944 377.155,-37.44 374.635,-36.36C372.187,-35.28 370.027,-33.84 368.083,-31.968C366.211,-30.096 364.771,-27.864 363.691,-25.416C362.683,-22.896 362.107,-20.16 362.107,-17.424C362.107,-14.688 362.683,-11.952 363.691,-9.432C364.771,-6.984 366.211,-4.824 368.083,-2.88C370.027,-1.008 372.187,0.432 374.635,1.512C377.155,2.52 379.891,3.096 382.627,3.096C385.867,3.096 389.035,2.304 391.915,0.864L391.843,2.52L402.643,2.52L402.643,-38.016L391.843,-38.016ZM387.523,-9.072C386.083,-8.208 384.355,-7.704 382.627,-7.704C377.299,-7.704 372.907,-12.096 372.907,-17.424C372.907,-22.752 377.299,-27.144 382.627,-27.144C384.499,-27.144 386.371,-26.64 387.883,-25.56C389.467,-24.624 390.691,-23.184 391.411,-21.528C392.059,-20.232 392.347,-18.864 392.347,-17.424C392.347,-15.696 391.915,-14.04 391.051,-12.528C390.187,-11.088 389.035,-9.864 387.523,-9.072Z"
                          style="fill:white;fill-rule:nonzero;"/>
                    </g>
                  <g id="path1499" transform="matrix(1.11,0,0,1.11,-68.0082,488.779)">
                        <path
                          d="M461.36,-32.328C458.12,-35.568 453.728,-37.368 449.12,-37.368C444.656,-37.368 440.408,-35.712 437.24,-32.616C434,-35.712 429.752,-37.368 425.288,-37.368C423.056,-37.368 420.824,-36.936 418.808,-36.072L418.808,-38.016L408.008,-38.016L408.008,2.52L418.808,2.52L418.808,-20.088C418.808,-23.616 421.688,-26.568 425.288,-26.568C428.888,-26.568 431.84,-23.616 431.84,-20.088L431.84,2.52L442.64,2.52L442.64,-20.088C442.64,-23.616 445.52,-26.568 449.12,-26.568C452.72,-26.568 455.672,-23.616 455.672,-20.088L455.672,2.52L466.472,2.52L466.472,-20.088C466.472,-24.696 464.672,-29.016 461.36,-32.328Z"
                          style="fill:white;fill-rule:nonzero;"/>
                    </g>
                  <g id="path1501" transform="matrix(1.11,0,0,1.11,-62.4582,488.779)">
                        <path
                          d="M488.704,2.808C491.512,2.808 494.248,2.232 496.84,1.08C499.36,-0 501.592,-1.584 503.464,-3.528L495.832,-10.728C493.96,-8.712 491.44,-7.632 488.704,-7.632C485.176,-7.632 482.08,-9.504 480.352,-12.24L508.936,-12.24L508.936,-17.496C508.936,-22.896 506.848,-28.008 503.032,-31.824C499.216,-35.64 494.104,-37.8 488.704,-37.8C483.232,-37.8 478.192,-35.64 474.304,-31.824C470.488,-28.008 468.4,-22.896 468.4,-17.496C468.4,-12.096 470.488,-6.984 474.304,-3.168C478.192,0.648 483.232,2.808 488.704,2.808ZM480.352,-22.68C482.08,-25.488 485.176,-27.36 488.704,-27.36C492.16,-27.36 495.256,-25.488 497.056,-22.68L480.352,-22.68Z"
                          style="fill:white;fill-rule:nonzero;"/>
                    </g>
                  <g id="path1503" transform="matrix(1.11,0,0,1.11,-56.9082,488.779)">
                        <path
                          d="M522.236,2.52L522.236,-15.192C522.236,-22.104 527.852,-27.792 534.836,-27.792L534.836,-38.592C531.668,-38.592 528.572,-37.944 525.692,-36.72C522.956,-35.568 520.436,-33.84 518.276,-31.68C516.116,-29.592 514.46,-27.072 513.236,-24.264C512.012,-21.384 511.436,-18.36 511.436,-15.192L511.436,2.52L522.236,2.52Z"
                          style="fill:white;fill-rule:nonzero;"/>
                    </g>
                  <g id="path1505" transform="matrix(1.11,0,0,1.11,-51.3582,488.779)">
                        <path
                          d="M555.034,2.952C560.146,2.952 564.898,1.512 568.426,-1.224C570.37,-2.736 571.882,-4.536 572.962,-6.624C574.114,-8.784 574.689,-11.304 574.689,-13.968C574.689,-18.864 572.962,-22.608 569.506,-25.488C566.554,-27.864 562.665,-29.376 558.562,-31.032C558.13,-31.176 557.698,-31.392 557.194,-31.536C554.314,-32.688 551.578,-33.696 549.849,-34.92C548.625,-35.784 547.834,-36.648 547.906,-38.304C547.906,-41.976 551.506,-43.344 554.53,-43.344C557.77,-43.344 561.658,-41.616 565.185,-38.736L567.201,-37.08L574.113,-46.008L572.242,-47.592C566.914,-51.84 560.794,-54.144 554.53,-54.144C549.634,-54.144 545.098,-52.488 541.714,-49.608C538.257,-46.584 536.386,-42.48 536.386,-38.088C536.386,-35.496 536.89,-33.192 537.969,-31.176C538.906,-29.304 540.273,-27.72 542.074,-26.208C545.242,-23.76 549.202,-22.176 553.233,-20.664C553.521,-20.52 553.81,-20.448 554.026,-20.376C556.978,-19.224 559.569,-18.288 561.154,-17.064C562.522,-16.056 563.098,-14.976 563.098,-13.248C563.098,-11.592 562.449,-10.368 561.226,-9.432C559.786,-8.424 557.626,-7.92 555.106,-7.92C552.946,-7.92 550.641,-8.424 548.626,-9.36C546.394,-10.44 544.449,-11.952 542.938,-13.824L540.994,-16.272L533.578,-7.344L535.089,-5.76C540.345,-0.144 547.401,2.952 555.033,2.952Z"
                          style="fill:white;fill-rule:nonzero;"/>
                    </g>
                  <g id="path1507" transform="matrix(1.11,0,0,1.11,-45.8082,488.779)">
                        <path
                          d="M607.993,2.52L617.137,2.52L630.961,-37.584L619.585,-37.584L612.673,-16.704L606.121,-37.584L597.409,-37.584L591.001,-16.704L584.017,-37.584L572.641,-37.584L586.537,2.52L595.465,2.52L601.729,-17.352L607.993,2.52Z"
                          style="fill:white;fill-rule:nonzero;"/>
                    </g>
                  <g id="path1509" transform="matrix(1.11,0,0,1.11,-40.2582,488.779)">
                        <path
                          d="M657.343,-38.016L657.415,-35.712C654.535,-37.152 651.367,-37.944 648.127,-37.944C645.391,-37.944 642.655,-37.44 640.135,-36.36C637.687,-35.28 635.527,-33.84 633.583,-31.968C631.711,-30.096 630.271,-27.864 629.191,-25.416C628.183,-22.896 627.607,-20.16 627.607,-17.424C627.607,-14.688 628.183,-11.952 629.191,-9.432C630.271,-6.984 631.711,-4.824 633.583,-2.88C635.527,-1.008 637.687,0.432 640.135,1.512C642.655,2.52 645.391,3.096 648.127,3.096C651.367,3.096 654.535,2.304 657.415,0.864L657.343,2.52L668.143,2.52L668.143,-38.016L657.343,-38.016ZM653.023,-9.072C651.583,-8.208 649.855,-7.704 648.127,-7.704C642.799,-7.704 638.407,-12.096 638.407,-17.424C638.407,-22.752 642.799,-27.144 648.127,-27.144C649.999,-27.144 651.871,-26.64 653.383,-25.56C654.967,-24.624 656.191,-23.184 656.911,-21.528C657.559,-20.232 657.847,-18.864 657.847,-17.424C657.847,-15.696 657.415,-14.04 656.551,-12.528C655.687,-11.088 654.535,-9.864 653.023,-9.072Z"
                          style="fill:white;fill-rule:nonzero;"/>
                    </g>
                  <g id="path1511" transform="matrix(1.11,0,0,1.11,-34.7082,488.779)">
                        <path
                          d="M712.604,-25.416C711.524,-27.864 710.084,-30.024 708.212,-31.968C706.268,-33.84 704.108,-35.28 701.66,-36.36C699.14,-37.44 696.476,-37.944 693.668,-37.944C690.932,-37.944 688.196,-37.44 685.676,-36.36C683.228,-35.28 681.068,-33.84 679.124,-31.968C677.252,-30.096 675.812,-27.864 674.732,-25.416C673.724,-22.896 673.148,-20.232 673.148,-17.424L673.148,13.176L683.948,16.776L683.948,0.648C684.524,0.936 685.1,1.224 685.676,1.44C688.196,2.52 690.932,3.096 693.668,3.096C696.404,3.096 699.14,2.52 701.66,1.44C704.108,0.432 706.268,-1.008 708.212,-2.952C710.084,-4.824 711.524,-6.984 712.604,-9.432C713.684,-11.952 714.188,-14.688 714.188,-17.424C714.188,-20.232 713.684,-22.896 712.604,-25.416ZM693.668,-7.704C688.34,-7.704 683.948,-12.096 683.948,-17.424C683.948,-22.752 688.34,-27.144 693.668,-27.144C698.996,-27.144 703.388,-22.752 703.388,-17.424C703.388,-12.096 698.996,-7.704 693.668,-7.704Z"
                          style="fill:white;fill-rule:nonzero;"/>
                    </g>
                </g>
            </g>
        </g>
    </g>
</svg>
